# xmcd
#
# Track frame offsets:
#	150
#	10980
#	22587
#	32402
#	57605
#	70067
#	79832
#	93927
#	106457
#	117952
#	129182
#	142000
#	152687
#	165962
#	177515
#	188625
#	203777
#
# Disc length: 2841 seconds
#
# Revision: 0
# Processed by: cddbd v1.5.2PL0 Copyright (c) Steve Scherf et al.
# Submitted via: EZCDAudioConverter 9.1.1.1
#
DISCID=d30b1711
DTITLE=Jim Reeves - Jim Reeves, The very best of  
DYEAR=1900
DGENRE=
TTITLE0=He'll Have To Go   
TTITLE1=Welcome To My World   
TTITLE2=Snowflake   
TTITLE3=The shifting Whispering Sands
TTITLE4=I Can't Stop Loving You   
TTITLE5=It Hurts So Much To See You Go   
TTITLE6=Guilty   
TTITLE7=I Love You Because   
TTITLE8=ADIOS AMIGO   
TTITLE9=\n\nMoon River    \n Moon River   
TTITLE10=Distant Drums   
TTITLE11=You're The Only Good Thing (That's Happened To Me)   
TTITLE12=Danny boy
TTITLE13=\n\nI Missed Me    \n  \n\nI Missed Me    \n I Missed Me   
TTITLE14=Moonlight and Roses (Bring Mem'ries Of You)   
TTITLE15=the Blizzard   
TTITLE16=There's A Heartache Following Me   
EXTD=
EXTT0=
EXTT1=
EXTT2=
EXTT3=
EXTT4=
EXTT5=
EXTT6=
EXTT7=
EXTT8=
EXTT9=
EXTT10=
EXTT11=
EXTT12=
EXTT13=
EXTT14=
EXTT15=
EXTT16=
PLAYORDER=
